<svg width="584.5062133789062px" height="121.61750183105468px" xmlns="http://www.w3.org/2000/svg" viewBox="-42.25310668945309 14.191249084472659 584.5062133789062 121.61750183105468" style="background: rgba(0, 0, 0, 0); --darkreader-inline-bgimage: initial; --darkreader-inline-bgcolor:rgba(0, 0, 0, 0);" data-darkreader-inline-bgimage="" data-darkreader-inline-bgcolor="" preserveAspectRatio="xMidYMid"><defs><filter id="editing-extrusion" x="-100%" y="-100%" width="300%" height="300%"><feFlood result="color1" flood-color="#444"></feFlood><feConvolveMatrix order="8,8" divisor="1" kernelMatrix="1 0 0 0 0 0 0 0 0 1 0 0 0 0 0 0 0 0 1 0 0 0 0 0 0 0 0 1 0 0 0 0 0 0 0 0 1 0 0 0 0 0 0 0 0 1 0 0 0 0 0 0 0 0 1 0 0 0 0 0 0 0 0 1" in="SourceAlpha" result="extrude"></feConvolveMatrix><feComposite in="color1" in2="extrude" result="comp-extrude" operator="in"></feComposite><feOffset dx="4" dy="4" in="comp-extrude" result="offset-extrude"></feOffset><feMerge><feMergeNode in="offset-extrude"></feMergeNode><feMergeNode in="SourceGraphic"></feMergeNode></feMerge></filter></defs><g filter="url(#editing-extrusion)"><g transform="translate(42.309689313173294, 104.44000053405762)"><path d="M26.11-42.69L26.11-42.69L26.11-42.69Q41.79-42.69 41.79-31.62L41.79-31.62L41.79-31.62Q41.79-25.54 37.89-21.89L37.89-21.89L37.89-21.89Q34.05-18.24 27.33-18.24L27.33-18.24L27.33-18.24Q24.19-18.24 21.76-20.03L21.76-20.03L21.76-20.03Q20.61-20.80 19.84-21.82L19.84-21.82L19.84-21.82Q24.51-21.82 26.98-24.67L26.98-24.67L26.98-24.67Q29.44-27.52 29.44-33.09L29.44-33.09L29.44-33.09Q29.44-38.66 23.94-38.66L23.94-38.66L22.40-38.66L22.40-38.66Q22.02-38.66 21.70-38.59L21.70-38.59L14.34 0L0.45 0L8.32-41.92L8.32-41.92Q15.17-42.56 19.14-42.62L19.14-42.62L19.14-42.62Q23.10-42.69 26.11-42.69ZM74.30-7.10L74.30-7.10L74.30-7.10Q74.30-4.29 77.18-3.46L77.18-3.46L77.18-3.46Q76.48-1.09 73.73 0.19L73.73 0.19L73.73 0.19Q71.42 1.28 68.90 1.28L68.90 1.28L68.90 1.28Q66.37 1.28 65.06 0.61L65.06 0.61L65.06 0.61Q63.74-0.06 63.04-1.15L63.04-1.15L63.04-1.15Q61.89-2.82 61.89-5.95L61.89-5.95L61.89-5.95Q61.89-7.81 62.91-12.93L62.91-12.93L63.81-17.79L63.81-17.79Q64.90-23.36 64.90-25.41L64.90-25.41L64.90-25.41Q64.90-28.99 62.91-28.99L62.91-28.99L62.91-28.99Q60.42-28.99 58.82-25.34L58.82-25.34L58.82-25.34Q58.18-23.94 57.73-21.82L57.73-21.82L53.38 0L40.51 1.28L49.54-44.80L62.40-46.08L61.89-43.52L61.89-43.52Q60.10-33.66 58.56-30.34L58.56-30.34L58.56-30.34Q62.14-33.92 68.74-33.92L68.74-33.92L68.74-33.92Q75.71-33.92 76.99-29.31L76.99-29.31L76.99-29.31Q77.44-27.84 77.44-26.56L77.44-26.56L77.44-26.56Q77.44-25.28 77.34-24.29L77.34-24.29L77.34-24.29Q77.25-23.30 76.93-21.50L76.93-21.50L76.10-16.90L74.62-9.66L74.62-9.66Q74.30-8.19 74.30-7.10ZM96.32 1.28L96.32 1.28L96.32 1.28Q82.24 1.28 82.24-11.97L82.24-11.97L82.24-11.97Q82.24-21.38 87.42-27.46L87.42-27.46L87.42-27.46Q92.93-33.92 102.46-33.92L102.46-33.92L102.46-33.92Q109.38-33.92 112.90-30.72L112.90-30.72L112.90-30.72Q116.42-27.52 116.42-20.80L116.42-20.80L116.42-20.80Q116.42-10.56 110.91-4.61L110.91-4.61L110.91-4.61Q105.54 1.28 96.32 1.28ZM97.98-26.56L97.98-26.56L97.98-26.56Q97.22-24.83 96.61-22.24L96.61-22.24L96.61-22.24Q96-19.65 95.23-15.55L95.23-15.55L95.23-15.55Q94.46-11.46 94.46-6.40L94.46-6.40L94.46-6.40Q94.46-4.74 95.01-3.65L95.01-3.65L95.01-3.65Q95.55-2.56 97.02-2.56L97.02-2.56L97.02-2.56Q98.50-2.56 99.42-3.26L99.42-3.26L99.42-3.26Q100.35-3.97 101.06-5.63L101.06-5.63L101.06-5.63Q102.34-8.58 103.36-14.05L103.36-14.05L103.36-14.05Q104.38-19.52 104.48-21.89L104.48-21.89L104.48-21.89Q104.58-24.26 104.58-26.02L104.58-26.02L104.58-26.02Q104.58-27.78 104.06-28.93L104.06-28.93L104.06-28.93Q103.55-30.08 102.11-30.08L102.11-30.08L102.11-30.08Q100.67-30.08 99.71-29.18L99.71-29.18L99.71-29.18Q98.75-28.29 97.98-26.56ZM147.26 1.28L147.26 1.28L147.26 1.28Q139.52 1.28 139.52-4.74L139.52-4.74L139.52-4.74Q139.58-6.40 140.10-9.22L140.10-9.22L141.25-15.10L141.25-15.10Q142.98-23.42 142.98-25.28L142.98-25.28L142.98-25.28Q142.98-28.99 140.80-28.99L140.80-28.99L140.80-28.99Q137.15-28.99 135.23-19.46L135.23-19.46L131.46 0L118.59 1.28L125.25-32.70L135.74-33.92L134.72-27.65L134.72-27.65Q137.73-33.92 146.94-33.92L146.94-33.92L146.94-33.92Q151.42-33.92 153.31-32.03L153.31-32.03L153.31-32.03Q155.20-30.14 155.20-25.92L155.20-25.92L155.20-25.92Q155.20-21.95 153.15-12.67L153.15-12.67L153.15-12.67Q152.19-8.51 152.19-6.94L152.19-6.94L152.19-6.94Q152.19-5.38 153.06-4.48L153.06-4.48L153.06-4.48Q153.92-3.58 155.20-3.46L155.20-3.46L155.20-3.46Q154.56-1.28 152.35 0L152.35 0L152.35 0Q150.14 1.28 147.26 1.28ZM164.86-26.75L164.86-26.75L164.86-26.75Q167.04-29.82 170.34-31.87L170.34-31.87L170.34-31.87Q173.63-33.92 177.66-33.92L177.66-33.92L177.66-33.92Q181.70-33.92 183.62-32.64L183.62-32.64L196.16-33.92L191.81-9.34L191.81-9.34Q189.57 3.20 184.83 8.13L184.83 8.13L184.83 8.13Q180.29 12.80 171.46 12.80L171.46 12.80L171.46 12.80Q164.74 12.80 160.90 10.69L160.90 10.69L160.90 10.69Q157.06 8.58 157.06 5.06L157.06 5.06L157.06 5.06Q157.06 2.43 159.04 0.93L159.04 0.93L159.04 0.93Q161.02-0.58 164.10-0.58L164.10-0.58L164.10-0.58Q166.78-0.58 168.83 0.64L168.83 0.64L168.83 0.64Q170.05 1.28 170.62 2.18L170.62 2.18L170.62 2.18Q169.15 3.46 169.15 5.57L169.15 5.57L169.15 5.57Q169.15 8.32 171.71 8.32L171.71 8.32L171.71 8.32Q176 8.32 178.43-1.79L178.43-1.79L178.43-1.79Q179.14-4.54 179.71-7.30L179.71-7.30L179.71-7.30Q176.83-3.78 170.30-3.78L170.30-3.78L170.30-3.78Q165.76-3.78 163.14-5.95L163.14-5.95L163.14-5.95Q160.51-8.13 160.51-13.25L160.51-13.25L160.51-13.25Q160.51-16.45 161.60-20.06L161.60-20.06L161.60-20.06Q162.69-23.68 164.86-26.75ZM173.18-13.06L173.18-13.06L173.18-13.06Q173.18-8.70 175.42-8.70L175.42-8.70L175.42-8.70Q176.96-8.70 178.43-10.37L178.43-10.37L178.43-10.37Q179.58-11.71 180.03-13.70L180.03-13.70L183.30-30.14L183.30-30.14Q182.98-30.21 182.66-30.34L182.66-30.34L182.66-30.34Q182.02-30.59 181.18-30.59L181.18-30.59L181.18-30.59Q177.28-30.59 174.98-24.19L174.98-24.19L174.98-24.19Q173.18-19.20 173.18-13.06ZM224.90 0L211.26 0L218.56-38.91L219.26-42.24L232.96-42.24L224.90 0ZM250.88-3.78L250.88-3.78L250.88-3.78Q249.15 1.28 242.50 1.28L242.50 1.28L242.50 1.28Q237.57 1.28 234.18-4.61L234.18-4.61L234.18-4.61Q230.72-10.50 230.08-20.10L230.08-20.10L230.08-20.10Q237.12-32.96 241.98-38.27L241.98-38.27L241.98-38.27Q246.66-43.33 251.52-43.33L251.52-43.33L251.52-43.33Q254.14-43.33 256.03-41.92L256.03-41.92L256.03-41.92Q257.92-40.51 258.37-38.27L258.37-38.27L258.37-38.27Q256.19-37.38 255.17-36.67L255.17-36.67L255.17-36.67Q252.61-34.75 249.15-30.46L249.15-30.46L243.33-23.49L243.33-23.49Q241.92-21.82 241.34-21.06L241.34-21.06L241.34-21.06Q242.30-15.68 245.18-10.37L245.18-10.37L245.18-10.37Q247.94-5.31 250.88-3.78ZM257.31-1.92L257.31-1.92L257.31-1.92Q255.81-3.58 255.14-6.21L255.14-6.21L255.14-6.21Q254.46-8.83 254.46-13.12L254.46-13.12L254.46-13.12Q254.46-17.41 255.94-21.31L255.94-21.31L255.94-21.31Q257.41-25.22 260.10-28.03L260.10-28.03L260.10-28.03Q265.60-33.92 274.69-33.92L274.69-33.92L274.69-33.92Q277.95-33.92 280.32-32.83L280.32-32.83L291.26-33.92L286.53-8.96L286.53-8.96Q286.34-8.19 286.34-6.78L286.34-6.78L286.34-6.78Q286.34-5.38 287.20-4.48L287.20-4.48L287.20-4.48Q288.06-3.58 289.34-3.46L289.34-3.46L289.34-3.46Q288.70-1.28 286.37 0L286.37 0L286.37 0Q284.03 1.28 281.41 1.28L281.41 1.28L281.41 1.28Q278.78 1.28 277.02 0.29L277.02 0.29L277.02 0.29Q275.26-0.70 274.75-2.37L274.75-2.37L274.75-2.37Q273.73-0.77 271.55 0.26L271.55 0.26L271.55 0.26Q269.38 1.28 266.46 1.28L266.46 1.28L266.46 1.28Q263.55 1.28 261.18 0.51L261.18 0.51L261.18 0.51Q258.82-0.26 257.31-1.92ZM270.82-27.90L270.82-27.90L270.82-27.90Q270.08-26.75 269.44-24.80L269.44-24.80L269.44-24.80Q268.80-22.85 267.74-17.63L267.74-17.63L267.74-17.63Q266.69-12.42 266.69-8.70L266.69-8.70L266.69-8.70Q266.69-4.99 267.26-3.90L267.26-3.90L267.26-3.90Q267.84-2.82 268.86-2.82L268.86-2.82L268.86-2.82Q270.91-2.82 272.42-4.77L272.42-4.77L272.42-4.77Q273.92-6.72 274.50-10.18L274.50-10.18L277.89-28.93L277.89-28.93Q276.54-30.08 274.98-30.08L274.98-30.08L274.98-30.08Q273.41-30.08 272.48-29.57L272.48-29.57L272.48-29.57Q271.55-29.06 270.82-27.90ZM313.86-22.46L313.86-22.46L313.86-22.46Q314.75-24.83 314.75-26.88L314.75-26.88L314.75-26.88Q314.75-30.66 311.68-30.66L311.68-30.66L311.68-30.66Q310.08-30.66 308.77-29.22L308.77-29.22L308.77-29.22Q307.46-27.78 307.46-25.98L307.46-25.98L307.46-25.98Q307.46-24.70 308.48-23.68L308.48-23.68L308.48-23.68Q309.95-22.27 313.73-19.97L313.73-19.97L313.73-19.97Q317.50-17.66 318.94-15.78L318.94-15.78L318.94-15.78Q320.38-13.89 320.38-11.30L320.38-11.30L320.38-11.30Q320.38-8.70 319.14-6.34L319.14-6.34L319.14-6.34Q317.89-3.97 315.65-2.30L315.65-2.30L315.65-2.30Q310.85 1.28 303.17 1.28L303.17 1.28L303.17 1.28Q299.01 1.28 295.81-0.90L295.81-0.90L295.81-0.90Q292.61-3.01 292.61-5.50L292.61-5.50L292.61-5.50Q292.61-8 294.43-9.47L294.43-9.47L294.43-9.47Q296.26-10.94 298.94-10.94L298.94-10.94L298.94-10.94Q301.63-10.94 303.30-9.92L303.30-9.92L303.30-9.92Q302.46-7.81 302.46-6.40L302.46-6.40L302.46-6.40Q302.46-2.18 306.05-2.18L306.05-2.18L306.05-2.18Q307.58-2.18 308.61-3.14L308.61-3.14L308.61-3.14Q309.63-4.10 309.63-5.76L309.63-5.76L309.63-5.76Q309.63-9.02 304.13-12.48L304.13-12.48L304.13-12.48Q299.65-15.42 298.62-16.58L298.62-16.58L298.62-16.58Q296.90-18.62 296.90-21.18L296.90-21.18L296.90-21.18Q296.90-23.74 298.11-26.18L298.11-26.18L298.11-26.18Q299.33-28.61 301.57-30.34L301.57-30.34L301.57-30.34Q306.24-33.92 314.37-33.92L314.37-33.92L314.37-33.92Q318.53-33.92 320.99-32.26L320.99-32.26L320.99-32.26Q323.46-30.59 323.46-27.78L323.46-27.78L323.46-27.78Q323.46-24.96 321.76-23.36L321.76-23.36L321.76-23.36Q320.06-21.76 316.99-21.76L316.99-21.76L316.99-21.76Q314.88-21.76 313.86-22.46ZM326.85-6.40L326.85-6.40L326.85-6.40Q326.85-8.13 327.74-12.48L327.74-12.48L331.14-29.76L327.36-29.76L327.62-31.68L327.62-31.68Q335.30-33.98 342.72-39.62L342.72-39.62L345.79-39.62L344.26-32.64L349.25-32.64L348.67-29.76L343.74-29.76L340.48-12.48L340.48-12.48Q339.65-8.51 339.65-7.17L339.65-7.17L339.65-7.17Q339.65-4.10 342.34-3.46L342.34-3.46L342.34-3.46Q341.70-1.28 339.39 0L339.39 0L339.39 0Q337.09 1.28 333.82 1.28L333.82 1.28L333.82 1.28Q330.56 1.28 328.70-0.77L328.70-0.77L328.70-0.77Q326.85-2.82 326.85-6.40ZM374.59-10.82L374.59-10.82L374.59-10.82Q376.19-9.73 376.19-7.33L376.19-7.33L376.19-7.33Q376.19-4.93 374.98-3.39L374.98-3.39L374.98-3.39Q373.76-1.86 371.78-0.83L371.78-0.83L371.78-0.83Q367.68 1.28 363.26 1.28L363.26 1.28L363.26 1.28Q358.85 1.28 356.26 0.32L356.26 0.32L356.26 0.32Q353.66-0.64 351.94-2.43L351.94-2.43L351.94-2.43Q348.54-5.82 348.54-12.03L348.54-12.03L348.54-12.03Q348.54-21.70 353.79-27.58L353.79-27.58L353.79-27.58Q359.42-33.92 369.22-33.92L369.22-33.92L369.22-33.92Q375.30-33.92 378.30-31.36L378.30-31.36L378.30-31.36Q380.54-29.44 380.54-26.30L380.54-26.30L380.54-26.30Q380.54-15.04 361.09-15.04L361.09-15.04L361.09-15.04Q360.83-13.38 360.83-11.97L360.83-11.97L360.83-11.97Q360.83-9.02 362.14-7.90L362.14-7.90L362.14-7.90Q363.46-6.78 365.89-6.78L365.89-6.78L365.89-6.78Q368.32-6.78 370.91-7.90L370.91-7.90L370.91-7.90Q373.50-9.02 374.59-10.82ZM361.54-17.79L361.54-17.79L361.54-17.79Q366.08-17.79 368.70-20.61L368.70-20.61L368.70-20.61Q371.33-23.30 371.33-27.58L371.33-27.58L371.33-27.58Q371.33-29.06 370.78-29.86L370.78-29.86L370.78-29.86Q370.24-30.66 369.15-30.66L369.15-30.66L369.15-30.66Q368.06-30.66 367.14-30.24L367.14-30.24L367.14-30.24Q366.21-29.82 365.25-28.42L365.25-28.42L365.25-28.42Q362.88-25.22 361.54-17.79ZM402.75-17.98L402.75-17.98L402.75-17.98Q405.06-22.08 405.06-26.24L405.06-26.24L405.06-26.24Q405.06-28.99 403.07-28.99L403.07-28.99L403.07-28.99Q401.54-28.99 399.94-26.37L399.94-26.37L399.94-26.37Q398.27-23.74 397.76-20.35L397.76-20.35L394.43 0L381.18 1.28L387.71-32.64L398.27-33.92L397.12-27.46L397.12-27.46Q400.26-33.92 407.30-33.92L407.30-33.92L407.30-33.92Q411.01-33.92 413.02-32L413.02-32L413.02-32Q415.04-30.08 415.04-26.14L415.04-26.14L415.04-26.14Q415.04-22.21 412.45-19.71L412.45-19.71L412.45-19.71Q409.86-17.22 405.44-17.22L405.44-17.22L405.44-17.22Q403.52-17.22 402.75-17.98Z" fill="#ccc" data-darkreader-inline-fill="" style="--darkreader-inline-fill:#262b2d;"></path></g></g><style>text {
  font-size: 64px;
  font-family: Arial Black;
  dominant-baseline: central;
  text-anchor: middle;
}</style><style class="darkreader darkreader--sync" media="screen"></style></svg>